PathFileType	4	(X/Y/Z)	D:\Long Term Storage\D'Arcy Smith\Coord12.trc
DataRate	CameraRate	NumFrames	NumMarkers	Units	OrigDataRate	OrigDataStartFrame	OrigNumFrames
120.00	120.00	      109	4	mm	120.00	1204	      4812
Frame#	Time	M1			M2			M3			M4			
		X1	Y1	Z1	X2	Y2	Z2	X3	Y3	Z3	X4	Y4	Z4	

1204	10.025	1022.52948	262.25769	501.19391	1644.47156	302.52289	574.38934							
1205	10.033	1021.74292	262.60251	500.44482	1644.72375	301.85947	571.72583							
1206	10.042	1020.95447	262.84756	499.52649	1645.31836	301.24667	568.53418							
1207	10.050	1020.32086	263.17468	498.21317	1645.74097	300.64191	565.04529							
1208	10.058	1019.69281	263.47592	496.60489	1646.00549	299.70157	561.27142							
1209	10.067	1018.92938	263.94391	494.84232	1645.95935	299.15225	557.62463							
1210	10.075	1018.27618	264.31213	492.77667	1646.80286	298.46854	553.14301							
1211	10.083	1017.69147	264.75046	490.32950	1647.21924	297.99054	548.52606							
1212	10.092	1017.24774	265.19736	487.77524	1647.60657	297.42822	543.56177							
1213	10.100	1016.88348	265.67572	485.10986	1647.90540	296.86356	538.49353							
1214	10.108	1016.71881	265.66110	481.92801	1648.21948	296.24734	532.95380							
1215	10.117	1016.43402	266.22470	478.33585	1648.46436	295.68051	526.90869							
1216	10.125	1016.09290	266.81436	474.33179	1648.66418	295.16675	520.73456							
1217	10.133	1015.80548	267.50366	470.08636	1648.86304	294.78589	514.01727							
1218	10.142	1015.59100	268.34302	465.49268	1649.09216	294.41394	507.20792							
1219	10.150	1015.25769	269.18866	460.85208	1649.18689	294.16357	499.74338							
1220	10.158	1015.40918	270.08081	455.64099	1649.34277	293.99222	492.12033							
1221	10.167	1015.22693	270.99963	450.14560	1649.26990	293.95947	484.23074							
1222	10.175	1015.25659	272.04099	444.56024	1649.15039	293.99985	476.36203							
1223	10.183	1015.37244	273.23569	438.54614	1648.42273	293.36185	467.37869							
1224	10.192	1015.39508	274.50940	432.46109	1648.24133	293.86197	458.97522							
1225	10.200	1015.54968	275.94479	426.06857	1648.20715	294.76199	449.15302							
1226	10.208	1015.74420	277.53458	419.40085	1647.84167	295.52090	439.77454							
1227	10.217	1015.94244	279.26834	412.53690	1647.44177	296.47128	430.14261							
1228	10.225	1016.14288	281.22171	405.53998	1646.90173	297.56714	420.23944							
1229	10.233	1016.39417	283.17108	398.30081	1646.32361	298.99292	410.28583							
1230	10.242	1016.76996	285.43439	390.88467	1645.59863	300.57150	400.19409							
1231	10.250	1017.24823	287.52402	383.34494	1644.68506	302.40161	390.02722							
1232	10.258	1017.64990	289.93204	375.65695	1643.90332	304.59232	379.86157							
1233	10.267	1018.14490	292.37280	368.16501	1643.00476	307.02319	369.69894							
1234	10.275	1018.56274	295.06308	360.38358	1641.80994	309.67331	359.63336							
1235	10.283	1018.97113	297.72528	352.80511	1640.94812	312.41629	349.77759							
1236	10.292	1019.61725	300.71783	345.17209	1640.18518	315.38727	340.02356							
1237	10.300	1020.09302	303.61981	337.54202	1639.03333	318.91330	330.37021							
1238	10.308	1020.79907	306.45267	330.15305	1637.76892	321.95609	321.34030							
1239	10.317	1021.14661	309.92032	321.85666	1636.62817	325.79898	312.19794							
1240	10.325	1021.83167	313.00696	314.85577	1635.63269	329.61157	303.47162							
1241	10.333	1022.45587	316.11749	307.88101	1634.43420	333.49841	294.94427							
1242	10.342	1022.85840	319.10498	301.09885	1633.23035	337.24164	286.76050							
1243	10.350	1023.47113	322.23337	294.71576	1632.22937	341.13754	278.98544							
1244	10.358	1023.89227	325.27884	288.55557	1631.25195	344.87799	271.57816							
1245	10.367	1024.39209	328.21527	282.59158	1630.49060	348.64371	264.63605							
1246	10.375	1024.56299	331.01443	276.89758	1629.16772	352.38275	258.18826							
1247	10.383	1025.29932	333.93231	271.62427	1628.35229	355.93906	252.14911							
1248	10.392	1025.76636	336.70770	266.56583	1627.27832	359.11768	246.61929							
1249	10.400	1026.20105	339.39429	261.76538	1626.47168	362.35818	241.78549							
1250	10.408	1026.56348	341.96875	257.41681	1625.50476	365.34616	237.42738							
1251	10.417	1026.89673	344.38879	253.19853	1624.55859	367.99637	233.53761							
1252	10.425	1027.28247	346.59354	249.39267	1623.87903	370.59140	230.31038							
1253	10.433	1027.65173	348.70361	246.14705	1623.33960	372.78986	227.76604							
1254	10.442	1027.97668	350.57547	242.92319	1622.77722	374.69250	225.25233							
1255	10.450	1028.14014	352.22736	240.27180	1622.33667	376.28683	223.69397							
1256	10.458	1028.47656	353.68127	237.96304	1621.97278	377.50482	222.24391							
1257	10.467	1028.55542	354.99237	235.81227	1621.66833	378.45822	221.34131							
1258	10.475	1028.71326	355.97458	234.31982	1621.45715	379.07513	220.84772							
1259	10.483	1028.77490	356.89734	232.84694	1621.23608	379.32184	220.77785							
1260	10.492	1028.81873	357.52924	231.64809	1621.20190	379.22583	221.12408							
1261	10.500	1028.84766	357.89963	230.87534	1621.13989	378.85645	221.87537							
1262	10.508	1028.96533	358.00900	230.34987	1620.13867	378.37875	222.87682							
1263	10.517	1028.99744	357.83994	230.08987	1621.55176	377.14572	224.35478							
1264	10.525	1029.01135	357.46558	230.10902	1621.53003	375.80676	226.04936							
1265	10.533	1029.03430	356.80081	230.37634	1621.64246	374.12323	228.12390							
1266	10.542	1029.02600	355.90894	230.88950	1622.12720	372.29614	230.35597							
1267	10.550	1028.96851	354.72180	231.78438	1622.18457	370.12906	233.03416							
1268	10.558	1029.01135	353.33240	233.00941	1621.49231	367.90976	235.88792							
1269	10.567	1029.00244	351.55762	234.53719	1622.81152	365.01465	239.26295							
1270	10.575	1028.99951	349.67822	236.11150	1623.12268	362.33884	242.82506							
1271	10.583	1029.06921	347.50766	238.29430	1623.31335	359.12759	246.75093							
1272	10.592	1028.88660	345.30148	240.76981	1623.91101	356.07318	251.12810							
1273	10.600	1028.90833	342.74756	243.40456	1624.35291	352.76892	255.80681							
1274	10.608	1028.93909	340.07712	246.44766	1624.75256	349.13528	260.84982							
1275	10.617	1028.90149	337.18729	249.90996	1625.47046	345.66040	266.31412							
1276	10.625	1028.86108	334.06570	253.57309	1626.00745	341.95645	271.86002							
1277	10.633	1028.76343	330.81189	257.64090	1626.77881	338.08655	277.89478							
1278	10.642	1028.88550	327.43555	261.97656	1627.60632	334.00369	284.23828							
1279	10.650	1028.82190	323.90564	266.66727	1628.57983	330.02307	290.96176							
1280	10.658	1028.80774	320.23453	271.81229	1629.41333	325.84882	297.69495							
1281	10.667	1028.83728	316.31796	277.21115	1630.01404	321.59332	304.99942							
1282	10.675	1028.68604	312.47198	283.24564	1630.97107	317.38101	312.53009							
1283	10.683	1028.81018	308.57617	289.43875	1631.73694	312.92715	320.64392							
1284	10.692	1028.87122	304.75165	296.14398	1633.03735	309.38751	328.60571							
1285	10.700	1028.70203	300.75287	303.15085	1633.72180	305.52673	337.22174							
1286	10.708	1028.94519	297.09531	310.57861	1634.60828	302.10614	346.19800							
1287	10.717	1028.77014	293.30005	318.18762	1635.56006	298.50024	355.57144							
1288	10.725	1029.05286	289.80106	325.78741	1636.56555	295.19617	365.20190							
1289	10.733	1029.15747	285.65298	335.62311	1637.51855	292.16043	375.06201							
1290	10.742	1028.83130	282.27588	344.30505	1638.52783	289.38638	385.25208							
1291	10.750	1028.91638	278.76279	353.37140	1639.34265	286.95053	395.66391							
1292	10.758	1028.78198	275.66476	362.76297	1640.00244	284.87091	406.25385							
1293	10.767	1028.65271	272.84558	372.02182	1640.60254	283.15738	416.92041							
1294	10.775	1028.54028	270.39511	381.67386	1641.19104	281.80615	427.68585							
1295	10.783	1028.31824	268.20267	391.22290	1641.77466	280.90152	438.46716							
1296	10.792	1028.07996	266.21994	401.05389	1642.20203	280.32047	449.29840							
1297	10.800	1027.83728	264.51251	410.54092	1642.44812	279.87805	461.13303							
1298	10.808	1027.40393	262.93423	420.27866	1642.79089	279.54813	471.18372							
1299	10.817	1027.36536	261.74240	430.06613	1643.74634	280.33331	481.86285							
1300	10.825	1026.88550	260.60983	439.33386	1644.19592	280.88284	492.30658							
1301	10.833	1026.34521	259.75510	448.65054	1644.47021	281.74994	502.76703							
1302	10.842	1026.08118	259.18552	458.13409	1644.77356	282.96106	512.73730							
1303	10.850	1025.23071	258.94431	466.98233	1645.22571	284.03983	522.74927							
1304	10.858	1024.96484	258.98444	475.96957	1645.24023	286.33713	532.20349							
1305	10.867	1023.76239	259.91043	484.10995	1645.28699	288.52527	541.40369							
1306	10.875	1023.14349	260.69080	491.78632	1645.05469	290.94470	550.54016							
1307	10.883	1022.31311	261.37646	499.60150	1645.05017	293.30972	558.83179							
1308	10.892	1021.39282	262.15558	506.95578	1645.17004	295.87396	566.67981							
1309	10.900	1020.47180	263.13055	514.04999	1645.48425	298.58566	574.21759							
1310	10.908	1019.63361	264.05661	520.50323	1646.00537	301.31924	581.45544							
1311	10.917	1018.74792	265.00375	526.86469	1645.83911	303.59869	587.91296							
1312	10.925	1017.53552	266.15079	532.61517	1646.01929	305.75858	594.24353							
